<?xml version="1.0" encoding="UTF-8"?>
<!DOCTYPE svg PUBLIC "-//W3C//DTD SVG 1.1//EN" "http://www.w3.org/Graphics/SVG/1.1/DTD/svg11.dtd">
<!-- Creator: CorelDRAW 2021 (64-Bit) -->
<svg xmlns="http://www.w3.org/2000/svg" xml:space="preserve" width="6.92913in" height="9.84252in" version="1.1" style="shape-rendering:geometricPrecision; text-rendering:geometricPrecision; image-rendering:optimizeQuality; fill-rule:evenodd; clip-rule:evenodd"
viewBox="0 0 6924.94 9836.57"
 xmlns:xlink="http://www.w3.org/1999/xlink"
 xmlns:xodm="http://www.corel.com/coreldraw/odm/2003">
 <defs>
  <style type="text/css">
   <![CDATA[
    .fil1 {fill:#ED3237}
    .fil0 {fill:#201E1E}
   ]]>
  </style>
 </defs>
 <g id="Layer_x0020_1">
  <metadata id="CorelCorpID_0Corel-Layer"/>
  <rect class="fil0" x="-0" width="6924.94" height="9836.57"/>
  <path class="fil1" d="M3098.92 2395.8c-809.61,47.58 -1454.45,719.42 -1454.45,1540.75l-4.27 482.57 -850.08 2634.07c-7.81,24.5 -4.97,49.71 7.11,72.09 9.58,17.4 25.21,29.11 43.32,37.28l989.99 -2442.67c126.05,-310.35 423.63,-510.62 758.48,-510.62l146.3 0c126.41,0 251.05,30.54 363.61,86.64l0 -1900.1 -0.01 0.01zm-818.13 4722.37c50.07,0 90.91,-40.83 90.91,-90.91 0,-50.06 -40.83,-90.91 -90.91,-90.91 -50.07,0 -90.91,40.83 -90.91,90.91 0,50.07 40.83,90.91 90.91,90.91zm2272.59 -90.91c0,50.07 40.83,90.91 90.91,90.91 50.07,0 90.91,-40.83 90.91,-90.91 0,-50.06 -40.83,-90.91 -90.91,-90.91 -50.07,0 -90.91,40.83 -90.91,90.91zm-300.06 90.91l-1581.57 0 740.36 493.57c30.54,20.6 70.31,20.6 101.2,0l740.01 -493.57zm156.25 -227.26l-807.48 -954.49 -279.1 0 -807.48 954.49c8.53,14.2 15.62,29.47 21.31,45.45l1851.45 0c5.69,-15.98 12.78,-31.25 21.31,-45.45zm-401.61 -318.16l0 181.8c0,50.42 -40.48,90.91 -90.91,90.91 -50.42,0 -90.89,-40.49 -90.89,-90.91l0 -181.8c0,-50.43 40.48,-90.91 90.89,-90.91 50.43,0 90.91,40.49 90.91,90.91zm-454.52 -272.71l0 454.52c0,50.42 -40.49,90.91 -90.91,90.91 -50.42,0 -90.91,-40.49 -90.91,-90.91l0 -454.52c0,-50.42 40.48,-90.91 90.91,-90.91 50.43,0 90.91,40.49 90.91,90.91zm-545.42 181.8c50.42,0 90.89,40.49 90.89,90.91l0 181.8c0,50.42 -40.48,90.91 -90.89,90.91 -50.43,0 -90.91,-40.49 -90.91,-90.91l0 -181.8c0,-50.43 40.48,-90.91 90.91,-90.91zm454.51 -909.03c-50.06,0 -90.91,40.83 -90.91,90.89l0 90.91 181.81 0 0 -90.91c0,-50.07 -40.85,-90.89 -90.91,-90.89zm-363.61 -454.53c0,-200.62 -162.98,-363.61 -363.61,-363.61l-87 0c-186.08,0 -351.55,111.49 -421.5,283.72l-4.62 11.71c-23.08,56.82 -16.69,118.6 17.75,169.73 34.44,51.14 89.49,80.25 150.91,80.25l526.25 0c100.13,0 181.8,-81.67 181.8,-181.81l0.01 0.01zm1435.28 181.81c61.43,0 116.47,-29.11 150.91,-80.25 34.44,-50.78 40.83,-112.91 17.75,-169.73l-4.62 -11.36c-69.95,-172.58 -235.43,-284.07 -421.5,-284.07l-87 0c-200.63,0 -363.61,162.98 -363.61,363.61 0,100.14 81.67,181.81 181.8,181.81l526.25 0 0.01 -0.01zm301.83 21.3c-67.82,100.5 -180.74,160.5 -301.83,160.5l-526.25 0c-200.62,0 -363.61,-162.98 -363.61,-363.61 0,-300.76 244.66,-545.41 545.42,-545.41l87 0c260.28,0 492.16,155.89 589.81,397.34l4.62 11.36c45.8,112.2 32.31,239.34 -35.15,339.81l-0.01 0zm89.84 -532.99c-97.65,-241.46 -329.52,-397.35 -589.81,-397.35l-146.3 0c-105.46,0 -209.5,26.28 -301.47,75.99 -29.47,15.62 -59.3,28.76 -89.49,40.83 -44.03,91.96 -137.07,155.89 -245.36,155.89l-181.81 0c-108.3,0 -201.34,-63.92 -245.36,-155.89 -30.18,-12.07 -60.37,-25.21 -89.49,-40.83 -91.96,-49.71 -196.01,-75.99 -301.47,-75.99l-146.3 0c-260.64,0 -491.8,155.89 -589.81,397.35l-982.19 2422.44c623.54,158.72 1260.58,254.6 1900.8,289.75l-435.7 -290.47c-50.07,54.69 -121.45,89.84 -201.34,89.84 -150.2,0 -272.71,-122.5 -272.71,-272.72 0,-116.11 73.51,-214.82 176.12,-254.24l-524.47 -785.82c-28.05,-41.9 -16.69,-98.36 25.21,-126.05 41.9,-28.05 98.01,-17.05 126.05,24.86l580.22 869.97 798.6 -943.48 0 -148.78c0,-150.2 122.5,-272.72 272.71,-272.72 150.21,0 272.72,122.52 272.72,272.72l0 148.78 798.6 943.48 580.22 -869.97c27.7,-41.9 84.16,-53.26 126.05,-25.21 41.9,28.05 53.27,84.16 25.21,126.05l-524.47 786.17c102.63,39.42 176.12,138.13 176.12,254.24 0,150.21 -122.5,272.72 -272.71,272.72 -79.89,0 -151.27,-35.15 -201.34,-89.84l-435.7 290.47c639.87,-35.16 1277.27,-131.03 1900.8,-289.75l-982.19 -2422.44 0.05 0zm-99.78 875.3c50.42,0 90.91,40.49 90.91,90.91 0,50.42 -40.48,90.91 -90.91,90.91l-818.13 0c-50.42,0 -90.91,-40.49 -90.91,-90.91 0,-50.42 40.49,-90.91 90.91,-90.91l818.13 0zm-1545.36 -545.42c0,200.63 -162.99,363.61 -363.61,363.61l-526.25 0c-121.09,0 -234.01,-60 -301.83,-160.5 -67.47,-100.49 -80.6,-227.61 -35.15,-339.81l4.97 -11.72c97.65,-241.11 329.17,-396.99 589.45,-396.99l87 0c300.76,0 545.42,244.65 545.42,545.41l0 0zm-363.61 545.42c50.42,0 90.91,40.49 90.91,90.91 0,50.42 -40.49,90.91 -90.91,90.91l-818.13 0c-50.42,0 -90.91,-40.49 -90.91,-90.91 0,-50.42 40.48,-90.91 90.91,-90.91l818.13 0zm908.89 -3267.91c809.61,47.58 1454.45,719.42 1454.45,1540.75l4.27 482.57 850.08 2634.07c7.81,24.5 4.97,49.71 -7.11,72.09 -9.58,17.4 -25.21,29.11 -43.32,37.28l-989.99 -2442.67c-126.05,-310.35 -423.63,-510.62 -758.48,-510.62l-146.3 0c-126.41,0 -251.05,30.54 -363.61,86.64l0 -1900.1 0.01 0.01zm-545.27 -95.51l0 2090.79c0,50.07 40.83,90.91 90.89,90.91l181.81 0c50.06,0 90.89,-40.83 90.89,-90.91l0 -2090.79c0,-50.07 -40.83,-90.91 -90.89,-90.91l-181.81 0c-50.06,0 -90.89,40.83 -90.89,90.91z"/>
 </g>
</svg>
